<svg width="36" height="36" viewBox="0 0 36 36" fill="none" xmlns="http://www.w3.org/2000/svg">
<g clip-path="url(#clip0)">
<path d="M17.8836 35.0215C27.3487 35.0215 35.0218 27.3485 35.0218 17.8833C35.0218 8.41815 27.3487 0.745117 17.8836 0.745117C8.41839 0.745117 0.745361 8.41815 0.745361 17.8833C0.745361 27.3485 8.41839 35.0215 17.8836 35.0215Z" fill="black" stroke="black" stroke-width="0.873611"/>
<path d="M22.563 13.4132C22.24 13.4301 21.9363 13.5722 21.7164 13.8094L16.3496 19.3936L14.0118 17.2345C13.7696 17.0108 13.4486 16.8923 13.1192 16.905C12.7897 16.9177 12.4788 17.0606 12.2546 17.3023C12.0303 17.544 11.9112 17.8648 11.9232 18.1942C11.9352 18.5237 12.0774 18.835 12.3187 19.0597L15.5496 22.0421C15.789 22.2626 16.1053 22.3805 16.4306 22.3703C16.7559 22.3601 17.0643 22.2228 17.2894 21.9877L23.5028 15.5258C23.6775 15.3479 23.7947 15.1215 23.8391 14.8761C23.8835 14.6307 23.853 14.3776 23.7516 14.1498C23.6503 13.9219 23.4827 13.7298 23.2707 13.5985C23.0587 13.4671 22.8121 13.4026 22.563 13.4132Z" fill="white"/>
</g>
<defs>
<clipPath id="clip0">
<rect width="35.7667" height="35.7667" fill="white"/>
</clipPath>
</defs>
</svg>
