<svg width="12" height="9" viewBox="0 0 12 9" fill="none" xmlns="http://www.w3.org/2000/svg">
<path d="M9.96486 0.17294C9.66238 0.188721 9.37797 0.321798 9.17204 0.543902L4.14607 5.77352L1.95674 3.75149C1.72995 3.54199 1.42931 3.43102 1.12079 3.44292C0.812269 3.45483 0.521073 3.58864 0.311098 3.81499C0.101122 4.04135 -0.0104816 4.34177 0.00077601 4.65031C0.0120336 4.95885 0.145233 5.25033 0.371146 5.46078L3.39691 8.25379C3.62107 8.46034 3.9173 8.57069 4.22195 8.56117C4.5266 8.55165 4.81536 8.423 5.02618 8.20287L10.845 2.15133C11.0086 1.98471 11.1184 1.77272 11.1599 1.5429C11.2015 1.31308 11.173 1.07608 11.078 0.8627C10.9831 0.649315 10.8262 0.46942 10.6277 0.34641C10.4291 0.2234 10.1982 0.162951 9.96486 0.17294Z" fill="white"/>
</svg>
