<svg width="28px" height="24px" viewBox="0 0 28 24" version="1.1" xmlns="http://www.w3.org/2000/svg" xmlns:xlink="http://www.w3.org/1999/xlink">
    <!-- Generator: Sketch 48.2 (47327) - http://www.bohemiancoding.com/sketch -->
    <title>empty photo state icon@3x</title>
    <desc>Created with Sketch.</desc>
    <defs>
        <polygon id="path-1" points="0 0 28 0 28 24 0 24"></polygon>
    </defs>
    <g id="Seeker---profile" stroke="none" stroke-width="1" fill="none" fill-rule="evenodd" transform="translate(-443.000000, -251.000000)">
        <g id="empty-photo-state-icon" transform="translate(443.000000, 251.000000)">
            <mask id="mask-2" fill="white">
                <use xlink:href="#path-1"></use>
            </mask>
            <g id="Clip-2"></g>
            <path d="M14,16.7271394 C11.8173442,16.7271394 10.0406504,14.9251461 10.0406504,12.7101844 C10.0406504,10.4952228 11.8168022,8.69322947 14,8.69322947 C16.1831978,8.69322947 17.9598916,10.4952228 17.9598916,12.7101844 C17.9598916,14.9251461 16.1831978,16.7271394 14,16.7271394 Z M14,5.94377363 C10.3224932,5.94377363 7.33062331,8.97917287 7.33062331,12.7101844 C7.33062331,16.441196 10.3224932,19.4765953 14,19.4765953 C17.6775068,19.4765953 20.6699187,16.441196 20.6699187,12.7101844 C20.6699187,8.97917287 17.6775068,5.94377363 14,5.94377363 Z M25.2899729,20.7693894 C25.2899729,21.0344369 25.0769648,21.2505442 24.8157182,21.2505442 L3.18428184,21.2505442 C2.92303523,21.2505442 2.7100271,21.0344369 2.7100271,20.7693894 L2.7100271,6.2005728 C2.7100271,5.93552526 2.92303523,5.71941803 3.18428184,5.71941803 L7.83794038,5.71941803 C8.42710027,5.71941803 8.94905149,5.33339443 9.12845528,4.76425707 L9.72574526,2.87263146 C9.73766938,2.83138962 9.7495935,2.79784626 9.7598916,2.77145148 C9.83902439,2.76045366 9.98102981,2.75000573 10.2276423,2.75000573 L17.7734417,2.75000573 C18.0200542,2.75000573 18.1615176,2.76100355 18.2411924,2.77145148 C18.2520325,2.80059572 18.2650407,2.8390881 18.2802168,2.88912819 L18.8720867,4.76425707 C19.0514905,5.33339443 19.5734417,5.71941803 20.1626016,5.71941803 L24.8162602,5.71941803 C25.0775068,5.71941803 25.2905149,5.93552526 25.2905149,6.2005728 L25.2905149,20.7693894 L25.2899729,20.7693894 Z M24.8157182,2.96996219 L21.1506775,2.96996219 L20.8661247,2.0670409 C20.2428184,0 18.5745257,0 17.7728997,0 L10.2271003,0 C9.42547425,0 7.75826558,0 7.13929539,2.04999427 L6.84932249,2.96996219 L3.18428184,2.96996219 C1.42872629,2.96996219 0,4.41947531 0,6.2005728 L0,20.7693894 C0,22.549937 1.42872629,24 3.18428184,24 L24.8157182,24 C26.5712737,24 28,22.549937 28,20.7693894 L28,6.2005728 C28,4.41947531 26.5712737,2.96996219 24.8157182,2.96996219 Z" id="Fill-1" fill="#FFFFFF" mask="url(#mask-2)"></path>
        </g>
    </g>
</svg>
