<svg xmlns="http://www.w3.org/2000/svg" width="110" height="21" viewBox="0 0 110 21">
    <g fill="none" fill-rule="evenodd">
        <path fill="#222427" d="M0 18.3V0h3.633v6.69h.028C4.77 5.502 6.323 4.908 8.097 4.908c2.885 0 4.964 1.431 4.964 5.481V18.3H9.43v-7.02c0-2.403-.916-3.213-2.635-3.213-1.941 0-3.161 1.188-3.161 3.564V18.3H0zm28.446-6.723a12.7 12.7 0 0 1-.083 1.269H18.85c.444 1.593 1.747 2.538 3.577 2.538 1.526 0 2.58-.621 3.3-1.485l2.357 2.133c-1.137 1.431-2.884 2.511-5.906 2.511-4.16 0-7.1-2.727-7.1-6.858 0-4.023 2.857-6.777 6.878-6.777 3.827 0 6.489 2.808 6.489 6.669zm-6.517-3.591c-1.47 0-2.634.81-3.05 2.322h5.962c-.36-1.404-1.331-2.322-2.912-2.322zM32.433 21l1.553-3.51-5.435-12.393h3.882l3.3 8.1h.056l3.078-8.1h3.688L35.789 21h-3.356zm26.952-2.457c-3.716 0-6.462-2.727-6.462-6.804 0-3.996 2.746-6.831 6.378-6.831 1.581 0 3.023.594 3.994 1.728l.055-.027V5.097h3.633V18.3h-3.466v-1.566l-.056-.027c-.943 1.188-2.302 1.836-4.076 1.836zm.693-3.186c1.858 0 3.439-1.431 3.439-3.591 0-2.133-1.498-3.699-3.44-3.699-1.968 0-3.466 1.431-3.466 3.699 0 2.106 1.415 3.591 3.467 3.591zm9.139 2.943V5.097h3.633v1.728h.027c1.082-1.269 2.552-1.917 4.05-1.917 1.774 0 3.188.648 3.992 2.079h.056c1.109-1.377 2.8-2.079 4.742-2.079 2.912 0 4.77 1.701 4.77 5.751V18.3h-3.633v-6.804c0-2.106-.666-3.429-2.357-3.429-1.526 0-2.773 1.269-2.773 3.645V18.3H78.09v-6.804c0-2.106-.721-3.429-2.385-3.429-1.636 0-2.856 1.269-2.856 3.645V18.3h-3.633zm-24.357 0V9.855h-1.415V6.912h1.415V4.671C44.86 1.593 46.44 0 49.13 0c1.636 0 2.884.567 3.494.972l-.748 2.754c-.75-.351-1.498-.594-1.997-.594-.86 0-1.359.513-1.359 1.782v1.998h2.995v2.943H48.52V18.3h-3.66z"/>
        <path fill="#0A8C8D" stroke="#0A8C8D" stroke-width="7" d="M106.5 8.4V3.5h-8.714v4.9h8.714z"/>
        <path fill="#FFF" d="M97.868 5.7a.54.54 0 0 0-.439.261.464.464 0 0 0 .035.516c.991 1.336 2.652 2.223 4.53 2.223 1.877 0 3.538-.887 4.53-2.223a.485.485 0 0 0-.151-.693c-.242-.146-.612-.083-.774.136-.801 1.079-2.114 1.78-3.606 1.78-1.491 0-2.804-.701-3.605-1.78a.669.669 0 0 0-.52-.22z"/>
    </g>
</svg>
