<svg width="48" height="48" viewBox="0 0 48 48" fill="none" xmlns="http://www.w3.org/2000/svg">
<path opacity="0.25" d="M24 47C36.7025 47 47 36.7025 47 24C47 11.2975 36.7025 1 24 1C11.2975 1 1 11.2975 1 24C1 36.7025 11.2975 47 24 47Z" stroke="#D4D2CE"/>
<path d="M34 23.9998C32.5 29 28 31 24 33.9998C20 32.5 16.5 28 14 23.9998C14 18.477 18.5 16.5 24 18.9998C29.5 16.5 34 18.477 34 23.9998Z" fill="#EF5252"/>
<path d="M24.367 20.6502L24.2435 20.4328L24.367 20.6502C24.47 20.5916 24.556 20.5075 24.6168 20.4058C24.9972 19.7811 25.4883 19.2131 26.1583 18.8003C26.8271 18.3883 27.6885 18.122 28.824 18.122C30.4435 18.122 32.934 19.5643 32.934 23.0018C32.934 24.7327 31.7476 26.6038 29.9302 28.3749C28.2211 30.0406 26.0294 31.5527 24.028 32.7586C22.0266 31.5527 19.8349 30.0406 18.1257 28.3749C16.3083 26.6038 15.122 24.7327 15.122 23.0018C15.122 19.5643 17.6125 18.122 19.232 18.122C20.3675 18.122 21.2289 18.3883 21.8977 18.8003C22.5677 19.2131 23.0588 19.7811 23.4392 20.4058C23.4999 20.5075 23.586 20.5916 23.6889 20.6502L23.8125 20.4328L23.6889 20.6502C23.7923 20.7089 23.9091 20.7398 24.028 20.7398C24.1469 20.7398 24.2637 20.7089 24.367 20.6502ZM19.232 16.75C16.8405 16.75 13.75 18.8445 13.75 23.0018C13.75 25.328 15.2423 27.4874 17.1636 29.3598C19.0934 31.2404 21.5335 32.8905 23.6751 34.1574C23.7817 34.2213 23.9037 34.2551 24.028 34.2551C24.1523 34.2551 24.2742 34.2213 24.3808 34.1574C26.5225 32.8905 28.9626 31.2404 30.8923 29.3598C32.8136 27.4874 34.306 25.328 34.306 23.0018C34.306 18.8445 31.2155 16.75 28.824 16.75C26.5553 16.75 25.0261 17.723 24.028 18.9321C23.0298 17.723 21.5006 16.75 19.232 16.75Z" fill="#EF5252" stroke="#EF5252" stroke-width="0.5"/>
</svg>
